<svg width="41" height="38" viewBox="0 0 41 38" fill="none" xmlns="http://www.w3.org/2000/svg">
<path d="M14.145 13.2622L6.56 20.4139L2.255 16.3972L0 18.5525L6.56 24.8225L16.4 15.4175L14.145 13.2622Z" fill="#3F51B5"/>
<path d="M14.145 0.526367L6.56 7.67806L2.255 3.66136L0 5.81666L6.56 12.0866L16.4 2.68167L14.145 0.526367Z" fill="#3F51B5"/>
<path d="M14.145 25.9982L6.56 33.1499L2.255 29.1332L0 31.2885L6.56 37.5584L16.4 28.1535L14.145 25.9982Z" fill="#3F51B5"/>
<path d="M20.5 17.083H41V21.0017H20.5V17.083Z" fill="#90CAF9"/>
<path d="M20.5 4.34717H41V8.26591H20.5V4.34717Z" fill="#90CAF9"/>
<path d="M20.5 29.8188H41V33.7376H20.5V29.8188Z" fill="#90CAF9"/>
</svg>
